<svg width="34" height="34" viewBox="0 0 34 34" fill="none" xmlns="http://www.w3.org/2000/svg">
<circle cx="17" cy="17" r="17" fill="white"/>
<rect width="28" height="28" transform="translate(3 3)" fill="white"/>
<path d="M17.0084 13.4993H23.1684C23.4519 13.4993 23.7284 13.5265 23.9961 13.579V11.3153C23.9961 10.1078 24.9744 9.12784 26.181 9.12784H27.1908C27.3623 9.12784 27.5023 8.98783 27.5023 8.81633V7.79871C27.5023 7.56421 27.6921 7.37433 27.9258 7.37433C28.6573 7.37433 29.2496 7.96758 29.2496 8.69908V10.4395C29.2496 11.647 28.2714 12.627 27.0648 12.627H26.0559C26.015 12.627 25.9745 12.635 25.9367 12.6507C25.8989 12.6663 25.8646 12.6893 25.8356 12.7182C25.8067 12.7471 25.7838 12.7815 25.7681 12.8193C25.7525 12.857 25.7444 12.8976 25.7444 12.9385V14.3568C26.2801 14.7578 26.7149 15.2782 27.0141 15.8767C27.3134 16.4751 27.4688 17.1352 27.4681 17.8043V24.0868C27.4681 24.5969 27.2947 25.0918 26.9764 25.4903L24.1466 29.0323C24.0927 29.1001 24.0241 29.1548 23.9461 29.1923C23.8681 29.2299 23.7826 29.2494 23.696 29.2493H22.6311C22.5934 29.2494 22.5565 29.2389 22.5244 29.2191C22.4923 29.1993 22.4664 29.171 22.4495 29.1373C22.4326 29.1036 22.4254 29.0659 22.4287 29.0283C22.4321 28.9908 22.4458 28.9549 22.4684 28.9247L24.4275 26.3093C24.7617 25.8638 24.9052 25.3037 24.8264 24.7523C24.7476 24.201 24.4531 23.7035 24.0075 23.3693L21.8095 21.7182C21.5123 21.4949 21.1505 21.3742 20.7788 21.3743H13.7753C13.1839 21.375 12.5986 21.2541 12.0559 21.0191C12.0139 21.0011 11.9676 20.9962 11.9228 21.0049C11.878 21.0137 11.8369 21.0357 11.8048 21.0681L11.0348 21.8381C10.9798 21.893 10.9364 21.9585 10.9073 22.0306C10.8781 22.1026 10.8637 22.1798 10.865 22.2576C10.8664 22.3353 10.8833 22.412 10.9149 22.483C10.9464 22.554 10.992 22.618 11.0488 22.6711L12.153 23.7858C12.29 23.9226 12.4757 23.9994 12.6693 23.9993H13.0691C13.3001 23.9993 13.4874 24.1875 13.4874 24.4185V25.3311C13.4874 25.3861 13.4765 25.4405 13.4555 25.4913C13.4344 25.5421 13.4035 25.5883 13.3646 25.6271C13.3257 25.666 13.2794 25.6968 13.2286 25.7178C13.1777 25.7387 13.1233 25.7495 13.0683 25.7493H12.6693C12.3437 25.7503 12.0213 25.6866 11.7206 25.5619C11.4199 25.4372 11.1469 25.2541 10.9175 25.0231L9.82814 23.9241C9.38061 23.4823 9.12559 22.8817 9.11852 22.2528C9.11711 21.9461 9.17664 21.6421 9.29365 21.3585C9.41066 21.0749 9.58282 20.8174 9.80014 20.6008L10.361 20.0382C10.4006 19.9983 10.4242 19.9453 10.4273 19.8891C10.4304 19.833 10.4127 19.7777 10.3776 19.7337C9.89231 19.1239 9.58036 18.3945 9.47464 17.6223L8.50339 10.583C8.498 10.5438 8.48376 10.5064 8.46175 10.4736C8.43974 10.4409 8.41054 10.4135 8.37638 10.3937C8.34222 10.3739 8.30398 10.3621 8.26459 10.3592C8.22519 10.3564 8.18567 10.3626 8.14902 10.3773L6.89952 10.8813L5.78564 8.87758L7.16639 7.38133H6.46027C6.42935 7.38118 6.39883 7.37438 6.37079 7.36137C6.34274 7.34837 6.31782 7.32948 6.29773 7.30598C6.27764 7.28248 6.26284 7.25493 6.25435 7.22521C6.24586 7.19548 6.24387 7.16427 6.24852 7.13371C6.30774 6.71514 6.51603 6.332 6.83512 6.0547C7.15421 5.77741 7.56265 5.62459 7.98539 5.62433H8.61539V4.98558C8.61551 4.9433 8.62698 4.90183 8.64859 4.86549C8.6702 4.82915 8.70117 4.79927 8.73827 4.77898C8.77537 4.75869 8.81723 4.74873 8.85949 4.75013C8.90174 4.75153 8.94285 4.76425 8.97852 4.78696L10.0933 5.62171H14.6669C14.8725 5.62171 15.0396 5.78883 15.0396 5.99533C15.0396 6.57546 14.7378 7.08383 14.2828 7.37346H16.6173C16.8273 7.37346 16.9979 7.54496 16.9979 7.75496C16.9985 8.19946 16.8888 8.63716 16.6787 9.02885C16.4686 9.42055 16.1646 9.754 15.7939 9.99933H18.0531C18.2526 9.99933 18.4136 10.1612 18.4136 10.3607C18.4143 10.9987 18.241 11.6247 17.9125 12.1715C17.5839 12.7184 17.1125 13.1653 16.549 13.4643C16.6995 13.4871 16.8535 13.4993 17.0093 13.4993H17.0084ZM8.68714 8.73321C8.80318 8.73321 8.91446 8.68712 8.9965 8.60507C9.07855 8.52302 9.12464 8.41174 9.12464 8.29571V7.81183C9.12729 7.75279 9.11794 7.69383 9.09717 7.6385C9.07639 7.58317 9.04463 7.53262 9.00378 7.48991C8.96294 7.4472 8.91386 7.4132 8.85951 7.38997C8.80517 7.36675 8.74668 7.35477 8.68758 7.35477C8.62848 7.35477 8.56999 7.36675 8.51565 7.38997C8.4613 7.4132 8.41223 7.4472 8.37138 7.48991C8.33054 7.53262 8.29877 7.58317 8.278 7.6385C8.25722 7.69383 8.24788 7.75279 8.25052 7.81183V8.29658C8.25052 8.41262 8.29661 8.5239 8.37866 8.60594C8.46071 8.68799 8.57199 8.73408 8.68802 8.73408L8.68714 8.73321Z" fill="#141414"/>
<path d="M5.47343 9.21582L4.99831 9.73207C4.8976 9.841 4.82422 9.97229 4.78421 10.1151C4.7442 10.258 4.7387 10.4083 4.76818 10.5537C4.89068 11.1548 5.48568 11.4532 6.05443 11.2231L6.49106 11.0472L5.47343 9.21582ZM8.50531 16.9989H7.94531C7.63958 16.9991 7.33687 17.0594 7.05448 17.1765C6.77208 17.2937 6.51552 17.4653 6.29946 17.6816C6.0834 17.8979 5.91208 18.1546 5.79527 18.4372C5.67846 18.7197 5.61845 19.0225 5.61868 19.3282V21.3932C5.61868 22.0556 5.87681 22.6786 6.34493 23.1467L6.68793 23.4897C6.71882 23.5206 6.7555 23.5452 6.79589 23.562C6.83628 23.5787 6.87958 23.5873 6.92331 23.5873C6.96703 23.5873 7.01033 23.5787 7.05072 23.562C7.09111 23.5452 7.1278 23.5206 7.15868 23.4897L7.92256 22.7232C7.98486 22.6607 8.01984 22.5761 8.01984 22.4878C8.01984 22.3996 7.98486 22.3149 7.92256 22.2524L7.57956 21.9094C7.44306 21.7723 7.36631 21.5867 7.36606 21.3932V19.3282C7.36606 19.0079 7.62593 18.7489 7.94531 18.7489H8.85006C8.73614 18.4221 8.65495 18.0847 8.60768 17.7418L8.50531 16.9989ZM19.6038 22.2498V23.2779C19.6037 23.3879 19.582 23.4967 19.5398 23.5982C19.4976 23.6997 19.4358 23.7919 19.3579 23.8694L18.5862 24.6377C18.3539 24.8692 18.1699 25.1445 18.0446 25.4475C17.9194 25.7506 17.8554 26.0755 17.8564 26.4034V27.2233C17.8564 27.3756 17.9789 27.4998 18.1321 27.4998H19.3282C19.4014 27.4996 19.4715 27.4704 19.5231 27.4185C19.5748 27.3667 19.6038 27.2965 19.6038 27.2233V26.4026C19.6038 26.2048 19.6826 26.0149 19.8226 25.8749L22.4213 23.2727L21.2838 22.4187C21.1383 22.3092 20.9611 22.2499 20.7789 22.2498H19.6038Z" fill="#141414"/>
</svg>
