<svg width="175" height="126" viewBox="0 0 175 126" fill="none" xmlns="http://www.w3.org/2000/svg">
<g clip-path="url(#clip0_26685_8992)">
<path d="M13.6617 17.4235C17.7185 17.4235 21.0071 14.1055 21.0071 10.0125C21.0071 5.91956 17.7185 2.60156 13.6617 2.60156C9.60503 2.60156 6.31641 5.91956 6.31641 10.0125C6.31641 14.1055 9.60503 17.4235 13.6617 17.4235Z" fill="#FF6584"/>
<path d="M59.0748 120.965C64.9178 123.407 71.1216 124.856 77.4341 125.252C80.3916 125.438 83.4048 125.447 86.3469 125.053C88.925 124.707 91.5437 123.999 93.6926 122.465C95.8406 120.906 97.3527 118.611 97.9467 116.009C98.6039 113.267 98.3273 110.394 97.3887 107.752C96.4201 105.018 94.8886 102.522 92.895 100.427C91.1079 98.5817 88.6046 96.903 85.9278 97.2189C83.3549 97.5227 81.4836 99.6213 80.7983 102.049C79.9767 104.96 80.922 108.039 82.2039 110.66C84.3783 115.105 87.8678 118.836 92.0006 121.489C96.158 124.175 100.938 125.72 105.868 125.973C110.807 126.197 116.121 125.042 120.013 121.821C122.063 120.141 123.526 117.843 124.19 115.263C124.882 112.541 124.701 109.666 124.103 106.945C122.804 101.037 119.375 95.9586 117.389 90.3037C116.896 88.9238 116.517 87.5054 116.255 86.0629C116.19 85.6928 115.631 85.8496 115.696 86.2184C116.723 92.0357 119.973 97.0445 122.107 102.462C124.05 107.397 125.207 113.455 122.328 118.273C119.738 122.608 114.595 124.72 109.799 125.26C105.109 125.787 100.308 124.939 96.0087 123.001C91.6815 121.05 87.8035 118.01 84.9901 114.149C83.461 112.05 82.1436 109.673 81.4682 107.148C80.7769 104.562 80.939 101.634 82.7678 99.5462C83.5751 98.5958 84.6991 97.9762 85.9278 97.804C87.2045 97.6428 88.4829 98.0036 89.6049 98.6053C92.014 99.8972 93.8067 102.143 95.1899 104.465C96.619 106.864 97.6258 109.583 97.7258 112.402C97.8187 115.022 97.1371 117.709 95.5756 119.831C92.3518 124.211 86.2928 124.742 81.3202 124.776C75.2255 124.814 69.1646 123.86 63.371 121.95C61.9707 121.489 60.59 120.972 59.2289 120.401C58.8846 120.257 58.7345 120.823 59.0748 120.965H59.0748Z" fill="#E4E4E5"/>
<path d="M43.9987 101.982L42.4414 99.5702C42.2599 99.2884 42.1966 98.9454 42.2654 98.6166C42.3342 98.2878 42.5295 97.9999 42.8084 97.8161L52.2941 90.3768C52.5734 90.1937 52.9133 90.1298 53.2392 90.1992C53.5652 90.2686 53.8505 90.4657 54.0326 90.7471L55.5899 93.1589C55.7714 93.4407 55.8347 93.7837 55.7659 94.1125C55.6971 94.4414 55.5018 94.7292 55.2229 94.913L45.7373 102.352C45.4579 102.535 45.118 102.599 44.7921 102.53C44.4662 102.46 44.1808 102.263 43.9987 101.982Z" fill="#141414"/>
<path d="M42.82 97.8281L45.3218 96.4446C45.6141 96.2834 45.9578 96.2457 46.2776 96.3399C46.5974 96.4341 46.8671 96.6524 47.0275 96.9469L53.6702 109.022C53.83 109.317 53.8673 109.664 53.7739 109.987C53.6806 110.309 53.4642 110.581 53.1723 110.743L50.6705 112.127C50.3782 112.288 50.0345 112.326 49.7147 112.232C49.3949 112.137 49.1252 111.919 48.9648 111.625L42.3221 99.5491C42.1623 99.2542 42.125 98.9074 42.2184 98.5847C42.3117 98.2621 42.5281 97.99 42.82 97.8281Z" fill="#141414"/>
<path d="M25.4293 75.6072C25.1106 75.6067 24.804 75.484 24.5716 75.264C24.3392 75.0441 24.1983 74.7432 24.1774 74.4223L23.991 71.55C23.9692 71.2145 24.0804 70.884 24.3001 70.6313C24.5198 70.3785 24.8301 70.2242 25.1626 70.2022L47.4668 68.7284C47.8184 68.7052 48.1711 68.7521 48.5047 68.8664C48.8383 68.9806 49.1464 69.1601 49.4113 69.3945C49.6761 69.6289 49.8927 69.9137 50.0485 70.2325C50.2043 70.5513 50.2964 70.898 50.3194 71.2527C50.3424 71.6074 50.296 71.9633 50.1827 72.2999C50.0694 72.6365 49.8915 72.9473 49.6592 73.2145C49.4269 73.4818 49.1447 73.7003 48.8286 73.8575C48.5126 74.0147 48.169 74.1075 47.8175 74.1308L25.5133 75.6044C25.4852 75.6062 25.4572 75.6071 25.4293 75.6072Z" fill="#7633FF"/>
<path d="M29.8289 75.9781C29.504 75.9775 29.1919 75.8502 28.958 75.6227C28.724 75.3952 28.5864 75.0852 28.5739 74.7577L28.4149 70.4675C28.4088 70.3011 28.4352 70.1352 28.4926 69.9791C28.55 69.823 28.6373 69.6799 28.7495 69.5579C28.8618 69.4359 28.9967 69.3373 29.1467 69.268C29.2967 69.1986 29.4587 69.1597 29.6236 69.1535L47.965 68.4618C48.298 68.4493 48.6223 68.5707 48.8665 68.7994C49.1108 69.0281 49.255 69.3453 49.2675 69.6813L49.4264 73.9715C49.4326 74.1378 49.4062 74.3038 49.3488 74.4598C49.2914 74.6159 49.2041 74.759 49.0918 74.8811C48.9796 75.0031 48.8446 75.1016 48.6947 75.171C48.5447 75.2404 48.3826 75.2793 48.2177 75.2855L29.8764 75.9771C29.8605 75.9778 29.8446 75.9781 29.8289 75.9781Z" fill="#E4E4E5"/>
<path d="M59.2784 121.336V112.026C59.2784 103.898 55.764 96.104 49.4932 91.0026C44.8062 87.1896 38.0173 84.3383 28.292 84.9754L31.9969 70.0234L0 92.1116L31.3233 114.2L28.1236 100.097C28.1236 100.097 47.6585 96.3593 59.2784 121.336Z" fill="#141414"/>
<path d="M36.9026 106.62L34.5951 104.927C34.3259 104.729 34.1455 104.431 34.0935 104.099C34.0416 103.767 34.1222 103.428 34.3178 103.156L48.3013 83.7521C48.4975 83.4805 48.7925 83.2985 49.1215 83.246C49.4505 83.1936 49.7868 83.2749 50.0564 83.4723L52.3639 85.165C52.6331 85.363 52.8135 85.6606 52.8655 85.9926C52.9175 86.3245 52.8369 86.6638 52.6413 86.9358L38.6577 106.34C38.4615 106.611 38.1666 106.793 37.8375 106.846C37.5085 106.898 37.1723 106.817 36.9026 106.62Z" fill="#141414"/>
<path d="M34.3299 103.162L36.178 100.969C36.3941 100.714 36.7019 100.555 37.0339 100.528C37.366 100.5 37.6951 100.607 37.9491 100.825L48.424 109.715C48.6776 109.933 48.835 110.244 48.8619 110.579C48.8888 110.914 48.7828 111.246 48.5673 111.502L46.7192 113.695C46.5032 113.951 46.1954 114.11 45.8633 114.137C45.5313 114.164 45.2022 114.057 44.9482 113.84L34.4732 104.949C34.2197 104.731 34.0622 104.421 34.0354 104.086C34.0085 103.751 34.1144 103.419 34.3299 103.162Z" fill="#141414"/>
<path d="M46.9871 63.9629C52.4317 63.9629 56.8453 59.5098 56.8453 54.0166C56.8453 48.5234 52.4317 44.0703 46.9871 44.0703C41.5426 44.0703 37.1289 48.5234 37.1289 54.0166C37.1289 59.5098 41.5426 63.9629 46.9871 63.9629Z" fill="#7633FF"/>
<path d="M42.6511 58.3969C42.3174 58.4039 41.9861 58.3388 41.6794 58.2059C41.4723 58.1067 41.2893 57.9631 41.143 57.7851C40.9968 57.607 40.8909 57.3989 40.8327 57.1752C40.7884 57.0169 40.781 56.8503 40.8111 56.6886C40.8412 56.5269 40.9079 56.3744 41.0061 56.243C41.2635 55.9097 41.7081 55.7512 42.2312 55.7918L40.9365 52.1351L41.3005 52.0039L42.8226 56.3026L42.4794 56.2241C42.0816 56.1333 41.5656 56.1532 41.311 56.4828C41.2494 56.5679 41.208 56.6662 41.1902 56.77C41.1723 56.8739 41.1784 56.9804 41.208 57.0815C41.2522 57.2478 41.3314 57.4026 41.4402 57.5352C41.549 57.6679 41.6848 57.7753 41.8384 57.8503C42.3765 58.0954 43.0063 58.0082 43.7141 57.8788L43.783 58.2625C43.4104 58.3413 43.0316 58.3863 42.6511 58.3969Z" fill="#141414"/>
<path d="M39.1509 52.8533L37.1133 53.2852L37.1928 53.6668L39.2304 53.2349L39.1509 52.8533Z" fill="#141414"/>
<path d="M45.5806 51.49L43.543 51.9219L43.6224 52.3035L45.6601 51.8716L45.5806 51.49Z" fill="#141414"/>
<path d="M55.2198 96.7016H38.5962C38.1606 96.7011 37.7429 96.5263 37.4349 96.2155C37.1269 95.9047 36.9536 95.4833 36.9531 95.0438L40.4333 68.1178C40.4361 67.6803 40.6103 67.2617 40.9181 66.9534C41.2258 66.6452 41.6419 66.4723 42.0755 66.4727H47.975C50.3314 66.4753 52.5905 67.421 54.2567 69.1021C55.9229 70.7832 56.8602 73.0625 56.8629 75.4399V95.0438C56.8624 95.4833 56.6891 95.9047 56.3811 96.2155C56.0731 96.5263 55.6554 96.7011 55.2198 96.7016Z" fill="#E4E4E5"/>
<path d="M29.2581 85.4595C29.0156 85.4597 28.7781 85.3891 28.5744 85.2562C28.3707 85.1234 28.2093 84.934 28.1098 84.7108L26.9421 82.0844C26.8746 81.9325 26.8373 81.7687 26.8326 81.6023C26.8278 81.4359 26.8555 81.2702 26.9142 81.1146C26.9729 80.959 27.0614 80.8166 27.1747 80.6956C27.2879 80.5745 27.4237 80.4771 27.5742 80.409L47.9681 71.1785C48.2896 71.033 48.6363 70.9528 48.9885 70.9425C49.3406 70.9322 49.6914 70.992 50.0206 71.1185C50.3499 71.2449 50.6513 71.4356 50.9075 71.6795C51.1638 71.9235 51.3699 72.216 51.5141 72.5403C51.6583 72.8647 51.7378 73.2145 51.748 73.5698C51.7582 73.9251 51.6989 74.279 51.5736 74.6112C51.4483 74.9434 51.2593 75.2474 51.0175 75.506C50.7757 75.7645 50.4858 75.9725 50.1643 76.118L29.7705 85.3485C29.6094 85.4216 29.4348 85.4595 29.2581 85.4595Z" fill="#7633FF"/>
<path d="M35.2095 84.1046C34.9669 84.1048 34.7295 84.0342 34.5257 83.9013C34.322 83.7685 34.1607 83.5791 34.0612 83.3559L32.0666 78.8699C31.9306 78.5631 31.9208 78.2144 32.0393 77.9003C32.1578 77.5862 32.395 77.3324 32.6988 77.1945L49.4451 69.615C49.5956 69.5468 49.758 69.5093 49.9229 69.5044C50.0878 69.4996 50.2521 69.5276 50.4063 69.5868C50.5605 69.646 50.7017 69.7353 50.8217 69.8496C50.9417 69.9638 51.0382 70.1008 51.1057 70.2527L53.1003 74.7386C53.1678 74.8905 53.205 75.0543 53.2098 75.2207C53.2146 75.3871 53.1869 75.5528 53.1282 75.7084C53.0695 75.864 52.981 76.0064 52.8677 76.1274C52.7545 76.2485 52.6187 76.3459 52.4681 76.414L35.7218 83.9936C35.5607 84.0667 35.3861 84.1045 35.2095 84.1046Z" fill="#E4E4E5"/>
<path d="M44.7988 47.7813C43.1937 47.1848 41.8743 48.7565 40.4199 49.1163C39.0285 49.4605 37.5294 48.6507 36.7862 47.4703C35.9191 46.0933 36.1339 44.3055 36.9227 42.946C37.7866 41.4572 39.325 40.5436 40.9556 40.1445C42.8244 39.6872 44.7716 39.9121 46.616 40.3766C48.3851 40.7946 50.1003 41.4176 51.7274 42.2334C53.1983 43.0015 54.5926 44.0523 55.4523 45.5078C56.2336 46.8305 56.6201 48.4767 56.2335 49.9922C56.0206 50.7745 55.6115 51.4883 55.0456 52.0646C54.4634 52.6865 53.7963 53.2256 53.2533 53.8852C52.4323 54.8826 51.8806 56.5172 52.6901 57.697C52.8655 57.9552 53.1013 58.1659 53.3765 58.3106C53.7071 58.4844 54.0006 57.9796 53.6692 57.8054C53.087 57.4995 52.8757 56.8786 52.8913 56.2457C52.9226 55.5272 53.1948 54.8408 53.6634 54.2989C54.2321 53.6094 54.9351 53.0512 55.5356 52.3921C56.1165 51.7778 56.5417 51.0309 56.775 50.2152C57.2017 48.6374 56.868 46.9189 56.1127 45.4974C55.2953 43.9591 53.9253 42.7976 52.4343 41.9534C50.8117 41.0347 49.0083 40.419 47.2178 39.9301C45.2966 39.4055 43.2793 39.11 41.3023 39.4731C39.5885 39.7878 37.9137 40.6226 36.8359 42.0349C35.8299 43.3532 35.3493 45.1501 35.8358 46.7723C36.0667 47.5068 36.4875 48.166 37.0547 48.6819C37.622 49.1979 38.3152 49.552 39.0632 49.7079C39.8237 49.849 40.6089 49.7457 41.3081 49.4125C42.0614 49.0719 42.7456 48.5424 43.5468 48.316C43.9062 48.2052 44.2916 48.2155 44.6447 48.3455C44.9954 48.4759 45.1466 47.9106 44.7988 47.7813Z" fill="#141414"/>
<path d="M115.723 87.4063V78.0958C115.723 69.9685 119.237 62.1743 125.508 57.0729C130.195 53.2599 136.984 50.4086 146.709 51.0457L143.004 36.0938L175.001 58.1819L143.678 80.2701L146.878 66.1676C146.878 66.1676 127.343 62.4296 115.723 87.4063Z" fill="#141414"/>
<path d="M133.115 40.8245C132.702 40.4883 132.397 40.0361 132.239 39.525C132.081 39.014 132.077 38.4671 132.226 37.9535C132.376 37.4399 132.674 36.9827 133.081 36.6397C133.489 36.2967 133.988 36.0832 134.515 36.0264L156.741 33.632C157.072 33.5967 157.404 33.6955 157.663 33.9065C157.922 34.1176 158.088 34.4238 158.124 34.7579L158.027 34.7683L158.124 34.7579L158.426 37.6201C158.444 37.7857 158.429 37.9531 158.382 38.1128C158.336 38.2725 158.259 38.4213 158.155 38.5509C158.051 38.6804 157.923 38.7881 157.779 38.8678C157.634 38.9475 157.475 38.9976 157.311 39.0152L135.085 41.4096C134.989 41.42 134.892 41.4252 134.795 41.4252C134.183 41.4256 133.59 41.2135 133.115 40.8245Z" fill="#7633FF"/>
<path d="M139.66 60.5992V57.7208C139.661 57.3847 139.793 57.0625 140.029 56.8248C140.264 56.5872 140.583 56.4535 140.917 56.4531H164.695C165.028 56.4535 165.348 56.5872 165.583 56.8248C165.819 57.0625 165.951 57.3847 165.951 57.7208V60.5992C165.951 60.9353 165.819 61.2575 165.583 61.4952C165.348 61.7328 165.028 61.8665 164.695 61.8669H140.917C140.583 61.8665 140.264 61.7328 140.029 61.4952C139.793 61.2575 139.661 60.9353 139.66 60.5992Z" fill="#7633FF"/>
<path d="M128.293 60.7411C128.145 60.6666 128.013 60.5633 127.906 60.4371C127.798 60.311 127.716 60.1646 127.665 60.0063L126.77 57.2729C126.666 56.9536 126.692 56.6058 126.841 56.3056C126.991 56.0054 127.253 55.7775 127.569 55.6717L150.149 48.1499C150.465 48.0444 150.81 48.0702 151.108 48.2214C151.405 48.3726 151.631 48.6369 151.736 48.9561L151.644 48.9867L151.736 48.9561L152.63 51.6894C152.734 52.0087 152.709 52.3566 152.559 52.6568C152.409 52.9569 152.147 53.1849 151.831 53.2906L129.252 60.8125C129.095 60.8651 128.93 60.8859 128.765 60.8736C128.6 60.8614 128.44 60.8163 128.293 60.7411V60.7411Z" fill="#7633FF"/>
<path d="M157.896 61.5851L147.762 52.3664C147.515 52.1411 147.367 51.826 147.349 51.4904C147.332 51.1548 147.448 50.8259 147.67 50.5761L149.581 48.4382C149.804 48.1886 150.116 48.0386 150.449 48.0212C150.782 48.0039 151.108 48.1206 151.355 48.3457L161.489 57.5643C161.736 57.7897 161.885 58.1047 161.902 58.4403C161.919 58.776 161.804 59.1048 161.581 59.3547L159.67 61.4924C159.56 61.6164 159.427 61.7171 159.278 61.7887C159.129 61.8603 158.967 61.9014 158.802 61.9095C158.78 61.9108 158.758 61.9114 158.736 61.9113C158.425 61.9118 158.126 61.7955 157.896 61.5851Z" fill="#7633FF"/>
<path d="M132.132 28.4668C137.576 28.4668 141.99 24.0137 141.99 18.5205C141.99 13.0273 137.576 8.57422 132.132 8.57422C126.687 8.57422 122.273 13.0273 122.273 18.5205C122.273 24.0137 126.687 28.4668 132.132 28.4668Z" fill="#7633FF"/>
<path d="M120.592 57.9918C119.903 56.8028 119.539 55.45 119.539 54.0724C119.539 52.6947 119.903 51.3419 120.592 50.153L131.042 31.8916C131.152 31.6989 131.311 31.5389 131.502 31.4276C131.693 31.3164 131.91 31.2578 132.13 31.2578C132.351 31.2578 132.568 31.3164 132.759 31.4276C132.95 31.5389 133.108 31.6989 133.218 31.8916L149.309 60.0097C149.419 60.2024 149.477 60.421 149.477 60.6436C149.477 60.8661 149.419 61.0847 149.309 61.2774C149.198 61.4701 149.04 61.6301 148.849 61.7414C148.658 61.8526 148.441 61.9112 148.221 61.9112H127.321C125.955 61.9194 124.612 61.5607 123.43 60.8718C122.247 60.183 121.268 59.1889 120.592 57.9918Z" fill="#E4E4E5"/>
<path d="M140.257 22.304C140.896 22.2861 141.691 22.2637 142.304 21.8121C142.486 21.6721 142.636 21.4936 142.743 21.2891C142.85 21.0845 142.911 20.8588 142.922 20.6279C142.934 20.4637 142.907 20.2992 142.844 20.1472C142.782 19.9951 142.686 19.8597 142.563 19.7515C142.243 19.4786 141.776 19.4147 141.272 19.564L141.794 15.717L141.411 15.6641L140.797 20.1867L141.117 20.0386C141.488 19.867 141.997 19.7798 142.313 20.0494C142.391 20.1199 142.451 20.2075 142.49 20.3054C142.529 20.4034 142.544 20.509 142.536 20.6141C142.527 20.786 142.481 20.9538 142.401 21.1062C142.322 21.2586 142.211 21.3919 142.076 21.4971C141.599 21.8485 140.965 21.8938 140.246 21.9141L140.257 22.304Z" fill="#141414"/>
<path d="M139.199 16.0508H137.117V16.4408H139.199V16.0508Z" fill="#141414"/>
<path d="M126.287 6.78899C126.013 5.66012 125.506 4.60249 124.798 3.6856C124.09 2.76872 123.198 2.01334 122.18 1.46911C121.136 0.927887 119.986 0.62802 118.813 0.591299C117.64 0.554577 116.474 0.781921 115.399 1.25682C114.298 1.73265 113.32 2.45752 112.541 3.3754C111.762 4.29328 111.202 5.3796 110.906 6.55041C110.6 7.72825 110.558 8.95981 110.782 10.1561C111.057 11.4233 111.59 12.6188 112.347 13.6669C113.111 14.7826 114.009 15.7952 114.833 16.8642C115.66 17.9354 116.414 19.0627 117.088 20.2381C119.119 23.7796 120.407 27.7046 120.872 31.7693C121.029 32.997 121.059 34.2379 120.96 35.4718C120.738 37.8679 119.818 40.2148 117.707 41.5186C116.584 42.2118 115.288 42.5697 114.007 42.8201C112.568 43.1277 111.095 43.2438 109.627 43.1654C107.144 42.9874 104.66 41.9422 103.218 39.8136C102.899 39.3395 102.649 38.8216 102.476 38.2758C102.362 37.9166 102.921 37.7628 103.036 38.1202C103.799 40.5088 106.117 41.9812 108.462 42.4301C109.923 42.677 111.414 42.6756 112.874 42.4258C114.201 42.226 115.568 41.9493 116.784 41.3588C117.888 40.839 118.804 39.9844 119.405 38.914C119.947 37.8807 120.276 36.7469 120.37 35.5814C120.628 33.0297 120.208 30.388 119.577 27.9199C118.903 25.2784 117.869 22.7441 116.504 20.3894C115.823 19.2128 115.059 18.0863 114.221 17.0182C113.39 15.9616 112.504 14.9457 111.755 13.8265C111.015 12.7707 110.494 11.5753 110.223 10.3117C109.992 9.09927 110.013 7.8517 110.286 6.64811C110.548 5.46027 111.063 4.34379 111.793 3.37517C112.523 2.40656 113.453 1.60872 114.517 1.03635C116.606 -0.0755343 119.152 -0.341751 121.386 0.477553C123.555 1.28492 125.32 2.92315 126.298 5.03622C126.533 5.54879 126.717 6.08389 126.846 6.63346C126.931 6.99966 126.372 7.15595 126.287 6.789V6.78899Z" fill="#141414"/>
<path d="M124.402 7.26371C124.039 6.21839 123.306 5.34489 122.345 4.81021C121.383 4.27552 120.26 4.11717 119.19 4.36541C118.827 4.45108 118.672 3.88709 119.036 3.80123C120.255 3.49955 121.541 3.67237 122.64 4.28526C123.738 4.89815 124.567 5.90609 124.961 7.10818C125.083 7.46499 124.523 7.61824 124.402 7.26371Z" fill="#141414"/>
<path d="M124.313 9.3779C124.202 9.11651 124.198 8.82137 124.302 8.55723C124.407 8.29309 124.611 8.08152 124.87 7.96892L127.533 6.81372C127.792 6.70139 128.085 6.69749 128.347 6.80288C128.609 6.90826 128.819 7.11431 128.93 7.37568C129.041 7.63705 129.045 7.93234 128.941 8.19659C128.836 8.46084 128.632 8.6724 128.373 8.78473L125.709 9.93993C125.45 10.0522 125.157 10.0561 124.895 9.95073C124.634 9.84533 124.424 9.63928 124.313 9.3779Z" fill="#141414"/>
<path d="M130.869 64.1947L128.026 63.9618C127.694 63.9341 127.386 63.7748 127.17 63.5187C126.955 63.2626 126.849 62.9306 126.875 62.5956L128.684 40.1179C128.712 39.7635 128.81 39.4182 128.97 39.1017C129.131 38.7853 129.352 38.5038 129.62 38.2735C129.889 38.0432 130.2 37.8685 130.535 37.7594C130.871 37.6503 131.224 37.609 131.575 37.6378C131.927 37.6666 132.269 37.7649 132.582 37.9271C132.896 38.0894 133.175 38.3124 133.403 38.5834C133.631 38.8544 133.804 39.1681 133.912 39.5066C134.02 39.845 134.061 40.2017 134.032 40.5561L132.223 63.0337C132.198 63.3507 132.055 63.6465 131.824 63.8624C131.592 64.0782 131.288 64.1983 130.973 64.1989C130.939 64.1989 130.904 64.1974 130.869 64.1947Z" fill="#7633FF"/>
<path d="M2.50753 19.4406C1.49126 17.0435 2.88432 13.9162 5.33573 13.0916C7.78713 12.2669 10.7616 13.9249 11.3745 16.4577C10.9782 15.4824 10.8116 14.4276 10.8878 13.3763C10.9639 12.3251 11.2807 11.3059 11.8133 10.3991C12.3459 9.49229 13.0798 8.72248 13.9572 8.15023C14.8345 7.57798 15.8315 7.2189 16.8697 7.1012C17.908 6.98351 18.9591 7.11043 19.9405 7.47197C20.9218 7.83351 21.8067 8.41982 22.5255 9.1848C23.2442 9.94977 23.7773 10.8726 24.0828 11.8806C24.3882 12.8886 24.4578 13.9544 24.2859 14.9941C25.7636 12.7961 28.9343 11.966 31.2848 13.1617C33.6354 14.3574 34.8593 17.423 33.9864 19.9287L1.63281 19.8704" fill="#F8F9FA"/>
<path d="M68.0349 46.7453C67.0186 44.3482 68.4117 41.2209 70.8631 40.3963C73.3145 39.5716 76.289 41.2296 76.9019 43.7624C76.5056 42.7871 76.339 41.7323 76.4151 40.681C76.4913 39.6298 76.8081 38.6106 77.3407 37.7038C77.8733 36.797 78.6071 36.0272 79.4845 35.4549C80.3619 34.8827 81.3589 34.5236 82.3971 34.4059C83.4353 34.2882 84.4864 34.4151 85.4678 34.7767C86.4492 35.1382 87.334 35.7245 88.0528 36.4895C88.7716 37.2545 89.3046 38.1772 89.6101 39.1853C89.9156 40.1933 89.9851 41.259 89.8132 42.2988C91.2909 40.1008 94.4616 39.2707 96.8122 40.4664C99.1627 41.6621 100.387 44.7277 99.5138 47.2334L67.1602 47.1751" fill="#F8F9FA"/>
</g>
<defs>
<clipPath id="clip0_26685_8992">
<rect width="175" height="126" fill="white"/>
</clipPath>
</defs>
</svg>
